<svg id="レイヤー_1" data-name="レイヤー 1" xmlns="http://www.w3.org/2000/svg" viewBox="0 0 2526.47 1080"><defs><style>.cls-1{fill:#fff;stroke:#231815;stroke-miterlimit:10;}.cls-2{fill:#f8b62d;}.cls-3{fill:#1d2088;}.cls-4{font-size:448px;fill:#231815;letter-spacing:0.15em;}.cls-4,.cls-5{font-family:Charter-Bold, Charter;font-weight:700;}.cls-5{font-size:72px;fill:#545555;letter-spacing:0.04em;}</style></defs><path class="cls-1" d="M533.85,32.18" transform="translate(-28.16 -12.42)"/><polygon class="cls-2" points="1080 153.56 1080 2.1 527.01 2.1 527.01 532.21 1080 532.21 1080 380.75 704.76 380.75 704.76 153.56 1080 153.56"/><polygon class="cls-3" points="166.17 1080 505.7 1080 505.7 19.77 166.17 1080"/><polygon class="cls-3" points="527.01 928.54 527.01 1080 1080 1080 1080 549.88 527.01 549.88 527.01 701.35 902.25 701.35 902.25 928.54 527.01 928.54"/><polygon class="cls-2" points="489.48 0 0 0 0 1077.9 489.48 0"/><text class="cls-4" transform="translate(1215.02 665.53)">ASCs</text><text class="cls-5" transform="translate(1426.59 770.84)">Aizu Students creators </text></svg>